# xmcd CD database file
#
# Track frame offsets:
#	150
#	12512
#	30855
#	52039
#	66694
#	87022
#	100734
#	121759
#	144236
#	159509
#	179038
#
# Disc length: 2668 seconds
#
# Revision: 0
# Processed by: cddbd v1.4PL0 Copyright (c) Steve Scherf et al.
# Submitted via: CDex 1.50
#
DISCID=8d0a6a0b
DTITLE=Juha Kartano - Blues 'n' spirit
DYEAR=2003
DGENRE=Blues
TTITLE0=Last Fair Deal Gone Down
TTITLE1=Jesus On The Mainline
TTITLE2=Death Don't Have No Mercy
TTITLE3=Mellow Down Easy
TTITLE4=Kind Hearted Women Blues
TTITLE5=My Last Good Car
TTITLE6=Outside Women Blues
TTITLE7=Can't Hold Out Much Longer
TTITLE8=Mean Ol' Frisco
TTITLE9=Write Me a Few Of Your Lines
TTITLE10=You Got To Move
EXTD=YEAR: 2003
EXTT0=
EXTT1=
EXTT2=
EXTT3=
EXTT4=
EXTT5=
EXTT6=
EXTT7=
EXTT8=
EXTT9=
EXTT10=
PLAYORDER=
